<?xml version="1.0" encoding="UTF-8"?>
<svg xmlns="http://www.w3.org/2000/svg" xmlns:xlink="http://www.w3.org/1999/xlink" width="555.5pt" height="212.3pt" viewBox="0 0 555.5 212.3" version="1.1">
<g id="surface1">
<path style=" stroke:none;fill-rule:evenodd;fill:rgb(0%,61.914063%,87.889099%);fill-opacity:1;" d="M 0.0820313 212.246094 L 555.5 212.246094 L 555.5 -0.0390625 L 0.0820313 -0.0390625 Z M 0.0820313 212.246094 "/>
<path style=" stroke:none;fill-rule:evenodd;fill:rgb(100%,100%,100%);fill-opacity:1;" d="M 89.855469 152.234375 L 88.660156 153.515625 C 88.429688 159.046875 87.414063 164.25 87.285156 169.804688 C 87.339844 172.328125 88.140625 174.664063 90.1875 176.394531 C 91.347656 177.371094 91.625 179.175781 90.003906 180.421875 C 88.535156 181.554688 86.675781 181.015625 85.3125 179.0625 C 83.566406 176.5625 82.507813 173.496094 82.296875 169.753906 C 81.960938 163.828125 82.417969 157.957031 81.265625 151.980469 C 75.128906 152.34375 69.492188 151.742188 64.652344 149.601563 C 62.710938 148.742188 60.71875 148.007813 58.996094 147.625 C 55.023438 151.476563 50.726563 159.222656 46.199219 164.152344 C 45.28125 165.148438 46.28125 167.417969 47.511719 169.320313 C 49.007813 171.632813 50.933594 173.617188 53.960938 174.824219 C 55.113281 175.28125 55.113281 177.734375 53.796875 177.960938 C 52.0625 178.257813 50.535156 177.714844 48.957031 176.136719 C 46.527344 173.707031 43.910156 171.261719 41.660156 168.4375 C 40.121094 166.5 40.175781 164.695313 41.054688 162.761719 C 42.890625 158.714844 43.652344 154.222656 43.585938 149.386719 L 31.121094 162.355469 L 27.878906 167.929688 C 27.695313 169.855469 27.738281 171.804688 28.234375 173.628906 L 31.527344 176.035156 C 33.183594 177.066406 32.320313 178.777344 31.121094 178.910156 C 29.972656 179.039063 28.847656 178.445313 27.726563 177.632813 C 26.25 176.5625 25.375 175.476563 25.246094 174.011719 C 24.878906 169.855469 24.371094 165.640625 25.75 163.269531 C 33.453125 150.027344 30.917969 143.957031 33.351563 134.261719 C 28.375 133.988281 24.160156 131.878906 22.40625 127.089844 C 21.382813 124.296875 21.289063 121.277344 21.394531 118.273438 C 21.441406 116.949219 22.304688 116.988281 22.367188 118.28125 C 22.769531 126.25 27.148438 132.3125 34.871094 131.613281 C 46.320313 124.359375 53.144531 128.171875 63.964844 125.203125 C 69.160156 123.78125 76.632813 123.925781 82.058594 123.457031 C 88.398438 119.914063 92.417969 115.015625 94.242188 111.296875 C 95.542969 108.636719 97.226563 105.527344 99.230469 105.261719 C 103.816406 104.660156 107.214844 105.140625 108.949219 106.621094 L 113.8125 110.777344 L 120.296875 111.078125 C 121.707031 111.046875 122.277344 112.730469 121.261719 113.863281 C 121.488281 116.976563 120.253906 119.074219 116.929688 120.035156 C 113.667969 120.980469 109.996094 120.46875 106.515625 120.605469 C 104.535156 122.574219 102.984375 124.882813 101.640625 127.351563 C 101.726563 137.53125 98.644531 138.8125 96.992188 144.824219 L 95.574219 149.6875 C 95.4375 156.984375 93.699219 164.867188 95.167969 171.578125 C 95.554688 173.347656 96.796875 174.941406 97.726563 176.316406 C 98.984375 178.179688 97.839844 180.136719 95.390625 179.566406 C 93.398438 179.097656 92.714844 177.109375 91.59375 174.707031 C 89.6875 170.621094 90.410156 159.765625 89.855469 152.234375 Z M 75.207031 40.363281 C 74.273438 43.433594 73.570313 46.558594 73.039063 49.726563 L 71.851563 49.726563 C 67.882813 44.042969 62.695313 41.128906 56.027344 41.296875 C 48.878906 41.476563 42.722656 45.03125 38.636719 53.742188 C 35.9375 59.488281 35.582031 65.578125 36.238281 71.710938 C 37.054688 79.367188 39.535156 85.988281 46.113281 90.390625 C 52.207031 94.46875 59.894531 94.167969 67.082031 90.894531 C 69.292969 89.886719 71.167969 88.316406 72.988281 86.730469 L 73.972656 87.234375 C 73.101563 89.53125 72.410156 91.921875 71.976563 94.453125 C 67.453125 96.980469 62.480469 97.890625 57.085938 98.085938 C 51.832031 98.277344 46.777344 97.671875 41.691406 96.21875 C 35.9375 94.578125 30.652344 91.710938 26.722656 86.527344 C 23.714844 82.5625 22.414063 77.847656 21.875 72.746094 C 21.214844 66.484375 21.664063 60.589844 23.695313 54.902344 C 25.746094 49.679688 29.007813 45.546875 33.386719 42.40625 C 37.453125 39.492188 41.859375 37.636719 46.636719 36.78125 C 54.441406 35.382813 61.75 35.660156 68.621094 37.765625 C 70.929688 38.46875 73.148438 39.261719 75.207031 40.363281 Z M 238.550781 57.769531 L 235.515625 66.625 L 233.59375 66.625 C 232.460938 61.492188 229.578125 58.070313 224.585938 58.023438 C 218.859375 57.96875 215.210938 62.523438 214.058594 69.507813 C 212.875 76.675781 213.828125 82.910156 216.742188 87.324219 C 219.222656 91.085938 223.210938 93.09375 229.039063 92.128906 C 231.785156 91.675781 234.199219 90.171875 236.375 88.132813 L 237.792969 89.195313 C 237.011719 90.882813 236.382813 92.585938 235.96875 94.304688 C 230.359375 98.046875 223.964844 98.960938 216.941406 97.496094 C 210.480469 96.144531 205.832031 92.671875 203.027344 87.121094 C 200.75 82.609375 200.324219 77.496094 201.304688 71.734375 C 202.476563 64.867188 205.910156 59.707031 211.933594 56.707031 C 218.210938 53.578125 224.933594 53.132813 231.71875 54.882813 C 234.238281 55.535156 236.515625 56.53125 238.550781 57.769531 Z M 242.105469 115.03125 L 243.121094 115.640625 C 242.847656 120.867188 242.609375 126.097656 242.460938 131.34375 C 245.050781 131.289063 247.644531 131.207031 250.242188 131.097656 L 250.242188 135.347656 L 242.367188 135.347656 C 242.3125 138.132813 242.292969 140.917969 242.308594 143.710938 L 242.394531 162.371094 C 242.425781 168.550781 245.699219 170.285156 251.023438 168.234375 L 251.023438 171.273438 C 245.484375 174.503906 240.164063 174.832031 235.214844 171.984375 C 231.597656 169.902344 230.230469 165.253906 230.351563 158.707031 L 230.757813 136.617188 C 230.765625 136.195313 230.769531 135.769531 230.777344 135.347656 L 224.734375 135.347656 L 224.734375 131.097656 C 226.746094 131.203125 228.765625 131.28125 230.785156 131.328125 C 230.753906 127.722656 230.621094 124.113281 230.351563 120.503906 C 234.53125 118.910156 238.535156 117.164063 242.105469 115.03125 Z M 131.953125 112.5 L 147.050781 112.5 C 151.714844 127.34375 156.984375 141.867188 162.65625 156.175781 L 163.070313 156.175781 L 179.582031 112.398438 L 187.382813 112.398438 L 162.757813 172.289063 C 160.265625 172.128906 157.769531 172.125 155.261719 172.289063 C 147.894531 152.28125 140.019531 132.371094 131.953125 112.5 Z M 452.480469 130.234375 C 456.332031 130.828125 460.253906 130.878906 464.238281 130.433594 L 464.085938 141.097656 C 466.925781 133.375 471.835938 129.25 478.726563 129.21875 C 477.953125 133.113281 478.59375 136.851563 478.523438 140.671875 L 477.816406 141.683594 C 470.773438 138.914063 465.0625 141.214844 464.613281 151.4375 C 464.3125 158.320313 464.980469 165.296875 464.84375 172.085938 L 452.378906 172.289063 C 452.144531 165.296875 452.871094 158.304688 452.886719 151.3125 C 452.902344 144.285156 452.261719 137.410156 452.480469 130.234375 Z M 300.882813 130.433594 C 304.730469 131.03125 308.652344 131.082031 312.636719 130.636719 L 312.484375 141.300781 C 315.328125 133.578125 320.238281 129.453125 327.128906 129.421875 C 326.351563 133.316406 326.992188 137.054688 326.925781 140.871094 L 326.214844 141.886719 C 319.171875 139.117188 313.460938 141.414063 313.015625 151.640625 C 312.710938 158.523438 313.378906 165.496094 313.246094 172.289063 L 300.78125 172.488281 C 300.542969 165.496094 301.269531 158.507813 301.285156 151.511719 C 301.304688 144.484375 300.664063 137.613281 300.882813 130.433594 Z M 268.371094 151.371094 L 293.402344 151.371094 C 293.839844 146.457031 293.207031 142.109375 291.375 138.398438 C 288.382813 132.339844 282.730469 129.734375 275.566406 129.480469 C 267.972656 129.214844 261.980469 131.980469 258.644531 137.996094 C 255.292969 144.035156 254.238281 150.804688 255.90625 157.957031 C 257.699219 165.632813 262.09375 171.070313 270.296875 173.058594 C 277.058594 174.691406 283.601563 173.445313 289.957031 169.8125 L 291.78125 165.152344 L 290.667969 164.140625 C 285.835938 167.917969 280.953125 169.230469 276.175781 167.585938 C 270.246094 165.542969 267.902344 159.78125 268.371094 151.371094 Z M 268.316406 147.402344 L 281.578125 147.402344 C 281.714844 141.566406 281.125 137.042969 279.046875 134.597656 C 277.136719 132.351563 273.652344 132.429688 271.65625 134.648438 C 269.148438 137.441406 268.277344 141.929688 268.316406 147.402344 Z M 194.476563 151.3125 L 219.507813 151.3125 C 219.941406 146.398438 219.3125 142.050781 217.480469 138.339844 C 214.488281 132.277344 208.835938 129.675781 201.671875 129.421875 C 194.078125 129.152344 188.085938 131.921875 184.75 137.933594 C 181.398438 143.972656 180.34375 150.742188 182.011719 157.898438 C 183.800781 165.570313 188.199219 171.011719 196.402344 172.996094 C 203.164063 174.632813 209.703125 173.382813 216.0625 169.753906 L 217.886719 165.09375 L 216.773438 164.078125 C 211.941406 167.859375 207.058594 169.171875 202.28125 167.523438 C 196.351563 165.480469 194.007813 159.722656 194.476563 151.3125 Z M 194.421875 147.339844 L 207.683594 147.339844 C 207.820313 141.503906 207.230469 136.984375 205.152344 134.539063 C 203.242188 132.292969 199.757813 132.371094 197.761719 134.589844 C 195.253906 137.382813 194.382813 141.867188 194.421875 147.339844 Z M 130.832031 54.941406 C 131.066406 62.386719 131.5625 69.859375 131.535156 77.285156 C 131.511719 83.734375 131.511719 90.289063 131.480469 96.742188 L 143.335938 96.742188 L 142.785156 78.09375 C 142.480469 71.679688 142.976563 66.878906 144.914063 64.109375 C 147.390625 60.566406 151.609375 60.414063 154.742188 62.894531 C 156.679688 64.425781 157.675781 67.339844 157.777344 71.816406 C 157.960938 80.277344 157.308594 88.429688 156.972656 96.742188 L 170.144531 96.742188 L 169.839844 77.789063 L 169.839844 67.046875 C 169.839844 59.726563 165.46875 55.148438 158.796875 54.179688 C 152.695313 53.292969 147.433594 55.554688 142.683594 61.476563 L 142.878906 54.960938 C 138.726563 55.667969 134.714844 55.648438 130.832031 54.941406 Z M 358.546875 130.488281 C 358.78125 137.933594 359.277344 145.410156 359.25 152.832031 C 359.226563 159.28125 359.226563 165.835938 359.195313 172.289063 L 371.050781 172.289063 L 370.5 153.640625 C 370.195313 147.226563 370.691406 142.425781 372.628906 139.65625 C 375.109375 136.113281 379.324219 135.960938 382.457031 138.441406 C 384.394531 139.972656 385.394531 142.886719 385.492188 147.363281 C 385.675781 155.824219 385.023438 163.976563 384.6875 172.289063 L 397.859375 172.289063 L 397.558594 153.335938 L 397.558594 142.597656 C 397.558594 135.273438 393.1875 130.695313 386.511719 129.726563 C 380.410156 128.839844 375.148438 131.101563 370.398438 137.023438 L 370.597656 130.507813 C 366.441406 131.214844 362.433594 131.195313 358.546875 130.488281 Z M 507.113281 135.398438 L 508.191406 140.75 L 508.917969 140.75 C 509.109375 140.335938 509.242188 140.121094 509.546875 139.855469 C 514.796875 135.25 522.070313 134.046875 525.710938 137.871094 C 527.851563 140.117188 528.878906 144.421875 526.671875 145.9375 C 519.664063 150.753906 506.847656 149.824219 504.886719 158.402344 C 503.90625 162.6875 504.351563 166.414063 506.914063 169.375 C 510.183594 173.152344 515.226563 174.527344 521.011719 173.042969 C 524.304688 172.199219 526.675781 169.816406 528.597656 166.8125 C 530.078125 170.589844 532.582031 173.023438 537.109375 172.953125 C 539.914063 172.914063 542.5625 171.929688 545.164063 170.585938 L 545.164063 168.433594 C 542.160156 169.1875 539.859375 167.132813 539.84375 163.96875 L 539.746094 143 C 539.714844 136.816406 536.300781 131.886719 531.839844 130.332031 C 525.601563 128.15625 515.003906 129.128906 507.113281 135.398438 Z M 528.304688 160.132813 C 528.304688 162.867188 527.300781 165.140625 525.214844 166.664063 C 523.054688 168.242188 520.878906 168.238281 518.890625 166.761719 C 518.007813 166.109375 517.300781 165.082031 517.070313 163.574219 C 516.75 161.503906 516.710938 159.347656 517.121094 157.148438 C 517.53125 154.933594 518.871094 153.476563 520.617188 152.847656 C 522.378906 152.210938 525.808594 150.816406 528.304688 149.484375 Z M 407.375 135.339844 L 408.453125 140.691406 L 409.183594 140.691406 C 409.371094 140.277344 409.507813 140.0625 409.808594 139.796875 C 415.058594 135.1875 422.332031 133.988281 425.972656 137.8125 C 428.113281 140.058594 429.140625 144.363281 426.933594 145.878906 C 419.929688 150.695313 407.109375 149.765625 405.148438 158.34375 C 404.167969 162.628906 404.613281 166.355469 407.175781 169.316406 C 410.445313 173.09375 415.488281 174.46875 421.273438 172.984375 C 424.566406 172.140625 426.9375 169.753906 428.859375 166.753906 C 430.339844 170.53125 432.84375 172.964844 437.375 172.894531 C 440.175781 172.851563 442.824219 171.871094 445.425781 170.527344 L 445.425781 168.375 C 442.421875 169.128906 440.121094 167.074219 440.105469 163.910156 L 440.007813 142.9375 C 439.980469 136.757813 436.5625 131.828125 432.101563 130.273438 C 425.863281 128.097656 415.265625 129.070313 407.375 135.339844 Z M 417.863281 121.488281 L 421.761719 121.488281 L 435.980469 113.847656 C 437.613281 112.691406 438.117188 111.621094 437.5 110.203125 C 437.054688 109.183594 436.574219 108.246094 435.222656 107.824219 C 433.546875 107.304688 431.597656 108.082031 429.703125 109.796875 C 425.589844 113.527344 421.71875 117.507813 417.863281 121.488281 Z M 428.566406 160.074219 C 428.566406 162.804688 427.5625 165.082031 425.480469 166.601563 C 423.316406 168.183594 421.140625 168.179688 419.152344 166.703125 C 418.273438 166.050781 417.5625 165.023438 417.332031 163.515625 C 417.015625 161.445313 416.972656 159.289063 417.382813 157.089844 C 417.792969 154.875 419.132813 153.417969 420.878906 152.789063 C 422.640625 152.152344 426.070313 150.753906 428.566406 149.421875 Z M 244.4375 60.007813 L 245.511719 65.359375 L 246.242188 65.359375 C 246.433594 64.941406 246.566406 64.730469 246.867188 64.464844 C 252.117188 59.855469 259.390625 58.652344 263.03125 62.476563 C 265.171875 64.726563 266.199219 69.027344 263.996094 70.546875 C 256.988281 75.363281 244.167969 74.429688 242.207031 83.007813 C 241.226563 87.296875 241.675781 91.023438 244.234375 93.980469 C 247.503906 97.761719 252.550781 99.132813 258.332031 97.652344 C 261.625 96.804688 263.996094 94.421875 265.921875 91.421875 C 267.402344 95.199219 269.902344 97.632813 274.433594 97.5625 C 277.234375 97.519531 279.882813 96.539063 282.484375 95.195313 L 282.484375 93.042969 C 279.484375 93.796875 277.179688 91.742188 277.164063 88.578125 L 277.066406 67.605469 C 277.039063 61.425781 273.625 56.492188 269.164063 54.9375 C 262.925781 52.765625 252.328125 53.738281 244.4375 60.007813 Z M 265.625 84.742188 C 265.625 87.472656 264.621094 89.75 262.539063 91.269531 C 260.375 92.851563 258.199219 92.847656 256.214844 91.371094 C 255.332031 90.714844 254.621094 89.691406 254.390625 88.183594 C 254.074219 86.113281 254.03125 83.957031 254.441406 81.757813 C 254.855469 79.542969 256.195313 78.085938 257.941406 77.453125 C 259.699219 76.816406 263.128906 75.421875 265.625 74.089844 Z M 485.214844 129.296875 C 489.773438 128.976563 494.105469 129.816406 498.589844 129.398438 C 498.0625 136.078125 497.753906 142.863281 497.679688 149.765625 C 497.597656 157.101563 498.382813 164.339844 498.183594 171.351563 L 484.910156 171.351563 C 484.671875 164.054688 485.542969 156.761719 485.71875 149.460938 C 485.886719 142.742188 485.679688 136.019531 485.214844 129.296875 Z M 491.675781 106.746094 C 495.410156 106.746094 498.433594 109.773438 498.433594 113.503906 C 498.433594 117.234375 495.410156 120.257813 491.675781 120.257813 C 487.949219 120.257813 484.921875 117.234375 484.921875 113.503906 C 484.921875 109.773438 487.949219 106.746094 491.675781 106.746094 Z M 336.117188 130.105469 C 340.675781 129.785156 345.007813 130.628906 349.492188 130.207031 C 348.964844 136.886719 348.65625 143.675781 348.582031 150.578125 C 348.5 157.910156 349.285156 165.148438 349.085938 172.160156 L 335.8125 172.160156 C 335.574219 164.863281 336.445313 157.570313 336.621094 150.273438 C 336.789063 143.550781 336.582031 136.828125 336.117188 130.105469 Z M 342.578125 107.558594 C 346.3125 107.558594 349.335938 110.582031 349.335938 114.3125 C 349.335938 118.042969 346.3125 121.070313 342.578125 121.070313 C 338.851563 121.070313 335.824219 118.042969 335.824219 114.3125 C 335.824219 110.582031 338.851563 107.558594 342.578125 107.558594 Z M 181.203125 54.839844 C 185.761719 54.519531 190.09375 55.359375 194.578125 54.9375 C 194.054688 61.621094 193.742188 68.40625 193.667969 75.308594 C 193.585938 82.644531 194.371094 89.882813 194.171875 96.894531 L 180.898438 96.894531 C 180.664063 89.597656 181.53125 82.304688 181.710938 75.003906 C 181.875 68.285156 181.667969 61.558594 181.203125 54.839844 Z M 187.664063 32.289063 C 191.398438 32.289063 194.421875 35.3125 194.421875 39.042969 C 194.421875 42.777344 191.398438 45.800781 187.664063 45.800781 C 183.9375 45.800781 180.910156 42.777344 180.910156 39.042969 C 180.910156 35.3125 183.9375 32.289063 187.664063 32.289063 Z M 106.921875 54.738281 C 111.441406 55.113281 115.605469 54.054688 120.097656 54.738281 C 119.453125 61.386719 119.304688 68.085938 119.183594 74.800781 C 119.046875 82.285156 119.207031 89.664063 119.691406 96.992188 L 106.214844 96.992188 C 106.875 89.796875 106.941406 82.570313 107.125 75.308594 C 107.296875 68.558594 107.328125 61.675781 106.921875 54.738281 Z M 108.648438 46.179688 L 112.542969 46.179688 L 126.761719 38.539063 C 128.398438 37.386719 128.902344 36.3125 128.28125 34.894531 C 127.835938 33.878906 127.359375 32.9375 126.003906 32.515625 C 124.328125 31.996094 122.382813 32.773438 120.488281 34.492188 C 116.375 38.222656 112.503906 42.199219 108.648438 46.179688 Z M 82.90625 30.820313 C 87.179688 31.339844 91.730469 31.273438 96.039063 30.886719 C 95.917969 43.109375 95.578125 50.066406 95.472656 60.523438 C 95.386719 68.921875 95.554688 79.578125 95.371094 96.992188 L 83.414063 96.992188 C 85.269531 51.730469 82.164063 38.996094 82.90625 30.820313 Z M 307.988281 63.488281 C 316.558594 66.027344 323.195313 70.027344 327.9375 75.914063 C 331.382813 80.195313 333.089844 85.230469 333.410156 90.710938 C 333.570313 93.421875 334.742188 94.710938 337.160156 95.371094 C 342.589844 96.859375 347.761719 97.023438 352.96875 95.574219 C 356.179688 94.21875 358.875 92.46875 361.277344 90.507813 C 362.515625 89.5 363.292969 90.554688 362.089844 91.824219 C 358.882813 95.210938 354.820313 97.761719 349.625 98.816406 C 346.753906 99.402344 343.675781 99.332031 340.503906 99.324219 C 336.425781 99.316406 332.546875 98.71875 328.367188 98.753906 C 326.660156 98.765625 324.902344 99 323.378906 99.933594 C 322.371094 100.550781 320.378906 100.460938 319.375 99.082031 C 319.210938 99.988281 318.503906 100.382813 316.992188 100.339844 C 314.9375 100.273438 312.9375 100.316406 311.421875 99.527344 C 310.417969 99.003906 310.667969 98.191406 311.421875 97.398438 C 312.613281 96.136719 314.789063 96.417969 313.546875 94.054688 L 311.722656 90.40625 C 311.296875 89.554688 310.625 89.328125 310.570313 90.558594 C 310.480469 92.613281 310.070313 94.574219 308.886719 96.488281 C 308.039063 97.855469 307.027344 97.980469 305.746094 96.792969 C 304.902344 97.953125 303.917969 98.941406 302.542969 98.878906 C 301.472656 98.835938 300.816406 98.402344 300.15625 97.613281 C 299.707031 97.078125 299.964844 96.683594 300.378906 96.316406 C 301.777344 95.078125 303.121094 94.421875 303.007813 92.230469 L 302.605469 85.847656 C 301.613281 81.894531 300.375 78.34375 298.671875 74.351563 C 297.597656 71.839844 297.671875 69.417969 298.457031 67.09375 C 299.128906 65.09375 298.3125 63.523438 296.683594 62.101563 C 295.203125 60.8125 294.398438 60.234375 293.621094 58.058594 C 293.054688 56.480469 293.261719 54.898438 293.890625 53.417969 C 293.71875 51.664063 293.882813 49.910156 293.890625 48.148438 C 293.890625 47.277344 294.0625 47.148438 294.800781 47.339844 C 296.574219 47.792969 297.960938 48.648438 299.058594 49.972656 C 300.703125 49.257813 302.410156 49.21875 304.226563 50.378906 C 305.585938 48.753906 307.222656 47.859375 309.191406 47.84375 C 309.527344 49.097656 309.667969 50.367188 309.074219 51.492188 C 308.714844 52.179688 308.4375 53.34375 309.089844 54.128906 C 312.125 57.777344 307.042969 61.582031 307.988281 63.488281 Z M 307.988281 63.488281 "/>
</g>
</svg>
