<?xml version="1.0" encoding="iso-8859-1"?>
<!-- Generator: Adobe Illustrator 19.0.0, SVG Export Plug-In . SVG Version: 6.00 Build 0)  -->
<svg version="1.1" id="Capa_1" xmlns="http://www.w3.org/2000/svg" xmlns:xlink="http://www.w3.org/1999/xlink" x="0px" y="0px"
	 viewBox="0 0 480 480" style="enable-background:new 0 0 480 480;" xml:space="preserve">
<g>
	<g>
		<path d="M240,172c-83.947,0-152,68.053-152,152s68.053,152,152,152c83.909-0.093,151.907-68.091,152-152
			C392,240.053,323.947,172,240,172z M240,460c-75.111,0-136-60.889-136-136s60.889-136,136-136
			c75.076,0.084,135.916,60.924,136,136C376,399.111,315.111,460,240,460z"/>
	</g>
</g>
<g>
	<g>
		<path d="M160,12c-35.346,0-64,28.654-64,64c0,35.346,28.654,64,64,64c35.33-0.04,63.96-28.67,64-64C224,40.654,195.346,12,160,12z
			 M160,124c-26.51,0-48-21.49-48-48s21.49-48,48-48c26.499,0.026,47.974,21.501,48,48C208,102.51,186.51,124,160,124z"/>
	</g>
</g>
<g>
	<g>
		<path d="M320,4c-35.346,0-64,28.654-64,64c0,35.346,28.654,64,64,64c35.33-0.04,63.96-28.67,64-64C384,32.654,355.346,4,320,4z
			 M320,116c-26.51,0-48-21.49-48-48s21.49-48,48-48c26.499,0.026,47.974,21.501,48,48C368,94.51,346.51,116,320,116z"/>
	</g>
</g>
<g>
	<g>
		<path d="M56,124c-30.928,0-56,25.072-56,56c0,30.928,25.072,56,56,56c30.911-0.04,55.96-25.089,56-56
			C112,149.072,86.928,124,56,124z M56,220c-22.091,0-40-17.909-40-40s17.909-40,40-40c22.08,0.026,39.974,17.92,40,40
			C96,202.091,78.091,220,56,220z"/>
	</g>
</g>
<g>
	<g>
		<path d="M424,124c-30.928,0-56,25.072-56,56c0,30.928,25.072,56,56,56c30.911-0.04,55.96-25.089,56-56
			C480,149.072,454.928,124,424,124z M424,220c-22.091,0-40-17.909-40-40s17.909-40,40-40c22.08,0.026,39.974,17.92,40,40
			C464,202.091,446.091,220,424,220z"/>
	</g>
</g>
<g>
	<g>
		<path d="M280,284v-64h-80v64h-64v80h64v64h80v-64h64v-80H280z M328,348h-64v64h-48v-64h-64v-48h64v-64h48v64h64V348z"/>
	</g>
</g>
<g>
</g>
<g>
</g>
<g>
</g>
<g>
</g>
<g>
</g>
<g>
</g>
<g>
</g>
<g>
</g>
<g>
</g>
<g>
</g>
<g>
</g>
<g>
</g>
<g>
</g>
<g>
</g>
<g>
</g>
</svg>
